# xmcd CD database file
# Copyright (C) 1996 Ti Kan
#
# Track frame offsets:
# 	150
# 	17097
# 	31537
# 	50855
# 	64005
# 	75752
# 	95372
# 	114277
# 	136582
# 	159155
#
# Disc length: 2390 seconds
#
# Revision: 1
# Processed by: cddbd v1.4b41PL1 Copyright (c) Steve Scherf et al.
# Submitted via: DiscPlay 3.4.1
#
DISCID=6309540a
DTITLE=Marty Brown - Wild Kentucky Skies
DYEAR=1900
DGENRE=
TTITLE0=It Must Be the Rain
TTITLE1=Let's Begin Again
TTITLE2=God Knows
TTITLE3=No Honky Tonkin' Tonight
TTITLE4=I'd Rather Fish Than Fight
TTITLE5=Honey I Ain't No Fool
TTITLE6=I Don't Want to See You Again
TTITLE7=Freight Train
TTITLE8=She's Gone
TTITLE9=Wild Kentucky Skies
EXTD=
EXTT0=
EXTT1=
EXTT2=
EXTT3=
EXTT4=
EXTT5=
EXTT6=
EXTT7=
EXTT8=
EXTT9=
PLAYORDER=
